<?xml version="1.0" encoding="UTF-8" standalone="no"?>
<svg width="800" height="400" viewBox="0 0 800 400" xmlns="http://www.w3.org/2000/svg">
  <!-- Background gradient -->
  <defs>
    <linearGradient id="bg-gradient" x1="0%" y1="0%" x2="100%" y2="100%">
      <stop offset="0%" stop-color="#0ea5e9" />
      <stop offset="100%" stop-color="#0f172a" />
    </linearGradient>
    
    <!-- Price chart pattern -->
    <pattern id="grid" patternUnits="userSpaceOnUse" width="20" height="20">
      <path d="M 20 0 L 0 0 0 20" fill="none" stroke="#94a3b8" stroke-width="0.5" stroke-opacity="0.2"/>
    </pattern>
  </defs>
  
  <!-- Background rectangle -->
  <rect width="800" height="400" fill="url(#bg-gradient)" />
  
  <!-- Title -->
  <text x="50" y="80" font-family="Inter, sans-serif" font-size="36" font-weight="bold" fill="#ffffff">Technical Analysis</text>
  
  <!-- Subtitle -->
  <text x="50" y="120" font-family="Inter, sans-serif" font-size="18" fill="#94a3b8">Chart Patterns and Indicators for Market Timing</text>
  
  <!-- Chart area background -->
  <rect x="50" y="140" width="450" height="220" fill="#1e293b" rx="5" />
  <rect x="50" y="140" width="450" height="220" fill="url(#grid)" rx="5" />
  
  <!-- Price chart (candlestick) -->
  <!-- Each candle: x, open, high, low, close -->
  <!-- Candle 1: Bullish -->
  <line x1="80" y1="220" x2="80" y2="260" stroke="#ffffff" stroke-width="1" />
  <rect x="75" y="220" width="10" height="25" fill="#22c55e" />
  
  <!-- Candle 2: Bearish -->
  <line x1="100" y1="215" x2="100" y2="265" stroke="#ffffff" stroke-width="1" />
  <rect x="95" y="215" width="10" height="30" fill="#ef4444" />
  
  <!-- Candle 3: Bearish -->
  <line x1="120" y1="240" x2="120" y2="270" stroke="#ffffff" stroke-width="1" />
  <rect x="115" y="240" width="10" height="20" fill="#ef4444" />
  
  <!-- Candle 4: Bearish -->
  <line x1="140" y1="250" x2="140" y2="290" stroke="#ffffff" stroke-width="1" />
  <rect x="135" y="250" width="10" height="25" fill="#ef4444" />
  
  <!-- Candle 5: Bullish -->
  <line x1="160" y1="260" x2="160" y2="300" stroke="#ffffff" stroke-width="1" />
  <rect x="155" y="275" width="10" height="25" fill="#22c55e" />
  
  <!-- Candle 6: Bullish -->
  <line x1="180" y1="250" x2="180" y2="290" stroke="#ffffff" stroke-width="1" />
  <rect x="175" y="250" width="10" height="25" fill="#22c55e" />
  
  <!-- Candle 7: Bullish -->
  <line x1="200" y1="230" x2="200" y2="260" stroke="#ffffff" stroke-width="1" />
  <rect x="195" y="230" width="10" height="20" fill="#22c55e" />
  
  <!-- Candle 8: Doji -->
  <line x1="220" y1="220" x2="220" y2="250" stroke="#ffffff" stroke-width="1" />
  <rect x="215" y="234" width="10" height="2" fill="#ffffff" />
  
  <!-- Candle 9: Bearish -->
  <line x1="240" y1="210" x2="240" y2="250" stroke="#ffffff" stroke-width="1" />
  <rect x="235" y="210" width="10" height="25" fill="#ef4444" />
  
  <!-- Candle 10: Bearish -->
  <line x1="260" y1="220" x2="260" y2="260" stroke="#ffffff" stroke-width="1" />
  <rect x="255" y="220" width="10" height="25" fill="#ef4444" />
  
  <!-- Candle 11: Bullish -->
  <line x1="280" y1="235" x2="280" y2="275" stroke="#ffffff" stroke-width="1" />
  <rect x="275" y="235" width="10" height="25" fill="#22c55e" />
  
  <!-- Candle 12: Bullish -->
  <line x1="300" y1="225" x2="300" y2="255" stroke="#ffffff" stroke-width="1" />
  <rect x="295" y="225" width="10" height="20" fill="#22c55e" />
  
  <!-- Candle 13: Bullish -->
  <line x1="320" y1="210" x2="320" y2="235" stroke="#ffffff" stroke-width="1" />
  <rect x="315" y="210" width="10" height="15" fill="#22c55e" />
  
  <!-- Candle 14: Bullish -->
  <line x1="340" y1="190" x2="340" y2="220" stroke="#ffffff" stroke-width="1" />
  <rect x="335" y="190" width="10" height="20" fill="#22c55e" />
  
  <!-- Candle 15: Doji -->
  <line x1="360" y1="180" x2="360" y2="210" stroke="#ffffff" stroke-width="1" />
  <rect x="355" y="194" width="10" height="2" fill="#ffffff" />
  
  <!-- Candle 16: Bearish -->
  <line x1="380" y1="185" x2="380" y2="220" stroke="#ffffff" stroke-width="1" />
  <rect x="375" y="195" width="10" height="25" fill="#ef4444" />
  
  <!-- Candle 17: Bullish -->
  <line x1="400" y1="190" x2="400" y2="230" stroke="#ffffff" stroke-width="1" />
  <rect x="395" y="205" width="10" height="25" fill="#22c55e" />
  
  <!-- Candle 18: Bullish -->
  <line x1="420" y1="175" x2="420" y2="210" stroke="#ffffff" stroke-width="1" />
  <rect x="415" y="175" width="10" height="25" fill="#22c55e" />
  
  <!-- Candlestick Pattern Analysis -->
  <!-- Double top pattern -->
  <path d="M 230 210 Q 260 150 290 210 Q 320 150 350 190" fill="none" stroke="#f472b6" stroke-width="2" stroke-dasharray="3,2" />
  <text x="270" y="160" font-family="Inter, sans-serif" font-size="12" fill="#f472b6" text-anchor="middle">Double Top</text>
  
  <!-- Support line -->
  <line x1="100" y1="300" x2="420" y2="300" stroke="#22c55e" stroke-width="2" stroke-dasharray="5,3" />
  <text x="430" y="300" font-family="Inter, sans-serif" font-size="12" fill="#22c55e">Support</text>
  
  <!-- Resistance line -->
  <line x1="100" y1="190" x2="420" y2="190" stroke="#ef4444" stroke-width="2" stroke-dasharray="5,3" />
  <text x="430" y="190" font-family="Inter, sans-serif" font-size="12" fill="#ef4444">Resistance</text>
  
  <!-- Trend line -->
  <line x1="160" y1="290" x2="420" y2="180" stroke="#3b82f6" stroke-width="2" />
  <text x="425" y="170" font-family="Inter, sans-serif" font-size="12" fill="#3b82f6">Trend</text>
  
  <!-- Chart Annotations -->
  <circle cx="220" cy="235" r="15" fill="none" stroke="#f59e0b" stroke-width="2" />
  <text x="220" y="265" font-family="Inter, sans-serif" font-size="12" fill="#f59e0b" text-anchor="middle">Doji</text>
  
  <circle cx="360" cy="195" r="15" fill="none" stroke="#f59e0b" stroke-width="2" />
  <text x="360" y="170" font-family="Inter, sans-serif" font-size="12" fill="#f59e0b" text-anchor="middle">Reversal Signal</text>
  
  <!-- Volume bars (simplified) -->
  <rect x="75" y="330" width="10" height="20" fill="#22c55e" fill-opacity="0.5" />
  <rect x="95" y="330" width="10" height="25" fill="#ef4444" fill-opacity="0.5" />
  <rect x="115" y="330" width="10" height="15" fill="#ef4444" fill-opacity="0.5" />
  <rect x="135" y="330" width="10" height="10" fill="#ef4444" fill-opacity="0.5" />
  <rect x="155" y="330" width="10" height="30" fill="#22c55e" fill-opacity="0.5" />
  <rect x="175" y="330" width="10" height="25" fill="#22c55e" fill-opacity="0.5" />
  <rect x="195" y="330" width="10" height="15" fill="#22c55e" fill-opacity="0.5" />
  <rect x="215" y="330" width="10" height="30" fill="#ffffff" fill-opacity="0.3" />
  <rect x="235" y="330" width="10" height="25" fill="#ef4444" fill-opacity="0.5" />
  <rect x="255" y="330" width="10" height="15" fill="#ef4444" fill-opacity="0.5" />
  <rect x="275" y="330" width="10" height="10" fill="#22c55e" fill-opacity="0.5" />
  <rect x="295" y="330" width="10" height="15" fill="#22c55e" fill-opacity="0.5" />
  <rect x="315" y="330" width="10" height="20" fill="#22c55e" fill-opacity="0.5" />
  <rect x="335" y="330" width="10" height="30" fill="#22c55e" fill-opacity="0.5" />
  <rect x="355" y="330" width="10" height="25" fill="#ffffff" fill-opacity="0.3" />
  <rect x="375" y="330" width="10" height="35" fill="#ef4444" fill-opacity="0.5" />
  <rect x="395" y="330" width="10" height="30" fill="#22c55e" fill-opacity="0.5" />
  <rect x="415" y="330" width="10" height="25" fill="#22c55e" fill-opacity="0.5" />
  
  <text x="50" y="345" font-family="Inter, sans-serif" font-size="12" fill="#ffffff">Volume</text>
  
  <!-- Technical indicators box -->
  <g transform="translate(550, 140)">
    <!-- Box -->
    <rect x="0" y="0" width="200" height="220" rx="5" fill="#1e293b" />
    
    <!-- Title -->
    <text x="100" y="25" font-family="Inter, sans-serif" font-size="16" font-weight="bold" fill="#ffffff" text-anchor="middle">Key Indicators</text>
    
    <!-- Indicators list -->
    <text x="20" y="55" font-family="Inter, sans-serif" font-size="14" fill="#ffffff">Moving Averages</text>
    <text x="30" y="75" font-family="Inter, sans-serif" font-size="12" fill="#94a3b8">• 20 EMA: <tspan fill="#22c55e">Uptrending</tspan></text>
    <text x="30" y="95" font-family="Inter, sans-serif" font-size="12" fill="#94a3b8">• 50 SMA: <tspan fill="#22c55e">Above</tspan></text>
    
    <text x="20" y="125" font-family="Inter, sans-serif" font-size="14" fill="#ffffff">Oscillators</text>
    <text x="30" y="145" font-family="Inter, sans-serif" font-size="12" fill="#94a3b8">• RSI: <tspan fill="#f59e0b">68 (Overbought)</tspan></text>
    <text x="30" y="165" font-family="Inter, sans-serif" font-size="12" fill="#94a3b8">• MACD: <tspan fill="#22c55e">Bullish Crossover</tspan></text>
    <text x="30" y="185" font-family="Inter, sans-serif" font-size="12" fill="#94a3b8">• Stochastic: <tspan fill="#f59e0b">80/20</tspan></text>
    
    <line x1="20" y1="40" x2="180" y2="40" stroke="#94a3b8" stroke-width="1" stroke-opacity="0.3" />
    <line x1="20" y1="110" x2="180" y2="110" stroke="#94a3b8" stroke-width="1" stroke-opacity="0.3" />
    <line x1="20" y1="200" x2="180" y2="200" stroke="#94a3b8" stroke-width="1" stroke-opacity="0.3" />
  </g>
  
  <!-- Legend -->
  <rect x="550" y="70" width="15" height="15" fill="#22c55e" />
  <text x="575" y="83" font-family="Inter, sans-serif" font-size="14" fill="#ffffff">Bullish Candle</text>
  
  <rect x="650" y="70" width="15" height="15" fill="#ef4444" />
  <text x="675" y="83" font-family="Inter, sans-serif" font-size="14" fill="#ffffff">Bearish Candle</text>
  
  <!-- Chart pattern strategy box -->
  <g transform="translate(400, 380)">
    <!-- Box -->
    <rect x="-350" y="-15" width="700" height="35" rx="5" fill="#ffffff" fill-opacity="0.1" />
    
    <!-- Content -->
    <text x="0" y="10" font-family="Inter, sans-serif" font-size="12" fill="#94a3b8" text-anchor="middle">Use indicators in conjunction with chart patterns and price action for higher probability trades</text>
  </g>
</svg> 